<mxfile host="app.diagrams.net" agent="Mozilla/5.0 (Windows NT 10.0; Win64; x64; rv:137.0) Gecko/20100101 Firefox/137.0" version="26.2.12">
  <diagram id="C5RBs43oDa-KdzZeNtuy" name="Page-1">
    <mxGraphModel dx="1428" dy="799" grid="1" gridSize="10" guides="1" tooltips="1" connect="1" arrows="1" fold="1" page="1" pageScale="1" pageWidth="827" pageHeight="1169" background="light-dark(#FFFFFF,#000000)" math="0" shadow="0">
      <root>
        <mxCell id="WIyWlLk6GJQsqaUBKTNV-0" />
        <mxCell id="WIyWlLk6GJQsqaUBKTNV-1" parent="WIyWlLk6GJQsqaUBKTNV-0" />
        <mxCell id="WIyWlLk6GJQsqaUBKTNV-2" value="" style="rounded=0;html=1;jettySize=auto;orthogonalLoop=1;fontSize=11;endArrow=block;endFill=0;endSize=8;strokeWidth=1;shadow=0;labelBackgroundColor=none;edgeStyle=orthogonalEdgeStyle;fontColor=default;strokeColor=#736CA8;" parent="WIyWlLk6GJQsqaUBKTNV-1" source="WIyWlLk6GJQsqaUBKTNV-3" target="WIyWlLk6GJQsqaUBKTNV-6" edge="1">
          <mxGeometry relative="1" as="geometry" />
        </mxCell>
        <mxCell id="WIyWlLk6GJQsqaUBKTNV-3" value="Autorizēšanas skats" style="rounded=1;whiteSpace=wrap;html=1;fontSize=12;glass=0;strokeWidth=1;shadow=0;labelBackgroundColor=none;fillColor=#5D7F99;strokeColor=#D0CEE2;fontColor=#1A1A1A;" parent="WIyWlLk6GJQsqaUBKTNV-1" vertex="1">
          <mxGeometry x="40" y="120" width="120" height="40" as="geometry" />
        </mxCell>
        <mxCell id="WIyWlLk6GJQsqaUBKTNV-4" value="&lt;div&gt;&lt;br&gt;&lt;/div&gt;&lt;div&gt;&lt;br&gt;&lt;/div&gt;" style="rounded=0;html=1;jettySize=auto;orthogonalLoop=1;fontSize=11;endArrow=block;endFill=0;endSize=8;strokeWidth=1;shadow=0;labelBackgroundColor=none;edgeStyle=orthogonalEdgeStyle;fontColor=default;strokeColor=#736CA8;" parent="WIyWlLk6GJQsqaUBKTNV-1" source="liWkwpBe3BBsj_QsNoLm-25" target="WIyWlLk6GJQsqaUBKTNV-10" edge="1">
          <mxGeometry y="20" relative="1" as="geometry">
            <mxPoint as="offset" />
          </mxGeometry>
        </mxCell>
        <mxCell id="WIyWlLk6GJQsqaUBKTNV-5" value="Nē" style="edgeStyle=orthogonalEdgeStyle;rounded=0;html=1;jettySize=auto;orthogonalLoop=1;fontSize=11;endArrow=block;endFill=0;endSize=8;strokeWidth=1;shadow=0;labelBackgroundColor=none;fontColor=default;strokeColor=#736CA8;" parent="WIyWlLk6GJQsqaUBKTNV-1" source="WIyWlLk6GJQsqaUBKTNV-6" target="WIyWlLk6GJQsqaUBKTNV-7" edge="1">
          <mxGeometry y="10" relative="1" as="geometry">
            <mxPoint as="offset" />
          </mxGeometry>
        </mxCell>
        <mxCell id="WIyWlLk6GJQsqaUBKTNV-6" value="&lt;div&gt;Izveidots&amp;nbsp;&lt;/div&gt;&lt;div&gt;konts sistēmā?&lt;/div&gt;" style="rhombus;whiteSpace=wrap;html=1;shadow=0;fontFamily=Helvetica;fontSize=12;align=center;strokeWidth=1;spacing=6;spacingTop=-4;labelBackgroundColor=none;fillColor=#5D7F99;strokeColor=#D0CEE2;fontColor=#1A1A1A;" parent="WIyWlLk6GJQsqaUBKTNV-1" vertex="1">
          <mxGeometry x="50" y="210" width="100" height="80" as="geometry" />
        </mxCell>
        <mxCell id="liWkwpBe3BBsj_QsNoLm-4" value="" style="edgeStyle=orthogonalEdgeStyle;rounded=0;orthogonalLoop=1;jettySize=auto;html=1;entryX=0;entryY=0.5;entryDx=0;entryDy=0;labelBackgroundColor=none;fontColor=default;strokeColor=#736CA8;" parent="WIyWlLk6GJQsqaUBKTNV-1" source="WIyWlLk6GJQsqaUBKTNV-7" target="liWkwpBe3BBsj_QsNoLm-23" edge="1">
          <mxGeometry relative="1" as="geometry" />
        </mxCell>
        <mxCell id="WIyWlLk6GJQsqaUBKTNV-7" value="Reģistrēšanās skats" style="rounded=1;whiteSpace=wrap;html=1;fontSize=12;glass=0;strokeWidth=1;shadow=0;labelBackgroundColor=none;fillColor=#5D7F99;strokeColor=#D0CEE2;fontColor=#1A1A1A;" parent="WIyWlLk6GJQsqaUBKTNV-1" vertex="1">
          <mxGeometry x="200" y="230" width="120" height="40" as="geometry" />
        </mxCell>
        <mxCell id="WIyWlLk6GJQsqaUBKTNV-8" value="Jā" style="rounded=0;html=1;jettySize=auto;orthogonalLoop=1;fontSize=11;endArrow=block;endFill=0;endSize=8;strokeWidth=1;shadow=0;labelBackgroundColor=none;edgeStyle=orthogonalEdgeStyle;fontColor=default;strokeColor=#736CA8;" parent="WIyWlLk6GJQsqaUBKTNV-1" source="WIyWlLk6GJQsqaUBKTNV-10" target="WIyWlLk6GJQsqaUBKTNV-11" edge="1">
          <mxGeometry x="0.3333" y="20" relative="1" as="geometry">
            <mxPoint as="offset" />
          </mxGeometry>
        </mxCell>
        <mxCell id="WIyWlLk6GJQsqaUBKTNV-9" value="Nē" style="edgeStyle=orthogonalEdgeStyle;rounded=0;html=1;jettySize=auto;orthogonalLoop=1;fontSize=11;endArrow=block;endFill=0;endSize=8;strokeWidth=1;shadow=0;labelBackgroundColor=none;entryX=0.5;entryY=0;entryDx=0;entryDy=0;fontColor=default;strokeColor=#736CA8;" parent="WIyWlLk6GJQsqaUBKTNV-1" source="WIyWlLk6GJQsqaUBKTNV-10" target="liWkwpBe3BBsj_QsNoLm-25" edge="1">
          <mxGeometry y="10" relative="1" as="geometry">
            <mxPoint as="offset" />
            <mxPoint x="200" y="490" as="targetPoint" />
            <Array as="points">
              <mxPoint x="180" y="490" />
              <mxPoint x="180" y="320" />
              <mxPoint x="100" y="320" />
            </Array>
          </mxGeometry>
        </mxCell>
        <mxCell id="WIyWlLk6GJQsqaUBKTNV-10" value="Lietotāja dati pareizi?" style="rhombus;whiteSpace=wrap;html=1;shadow=0;fontFamily=Helvetica;fontSize=12;align=center;strokeWidth=1;spacing=6;spacingTop=-4;labelBackgroundColor=none;fillColor=#5D7F99;strokeColor=#D0CEE2;fontColor=#1A1A1A;" parent="WIyWlLk6GJQsqaUBKTNV-1" vertex="1">
          <mxGeometry x="50" y="450" width="100" height="80" as="geometry" />
        </mxCell>
        <mxCell id="liWkwpBe3BBsj_QsNoLm-13" style="edgeStyle=orthogonalEdgeStyle;rounded=0;orthogonalLoop=1;jettySize=auto;html=1;exitX=0.5;exitY=1;exitDx=0;exitDy=0;entryX=0;entryY=0.5;entryDx=0;entryDy=0;labelBackgroundColor=none;fontColor=default;strokeColor=#736CA8;" parent="WIyWlLk6GJQsqaUBKTNV-1" source="WIyWlLk6GJQsqaUBKTNV-11" target="liWkwpBe3BBsj_QsNoLm-9" edge="1">
          <mxGeometry relative="1" as="geometry" />
        </mxCell>
        <mxCell id="liWkwpBe3BBsj_QsNoLm-14" style="edgeStyle=orthogonalEdgeStyle;rounded=0;orthogonalLoop=1;jettySize=auto;html=1;exitX=0.5;exitY=1;exitDx=0;exitDy=0;entryX=0;entryY=0.5;entryDx=0;entryDy=0;labelBackgroundColor=none;fontColor=default;strokeColor=#736CA8;" parent="WIyWlLk6GJQsqaUBKTNV-1" source="WIyWlLk6GJQsqaUBKTNV-11" target="liWkwpBe3BBsj_QsNoLm-10" edge="1">
          <mxGeometry relative="1" as="geometry" />
        </mxCell>
        <mxCell id="liWkwpBe3BBsj_QsNoLm-15" style="edgeStyle=orthogonalEdgeStyle;rounded=0;orthogonalLoop=1;jettySize=auto;html=1;exitX=0.5;exitY=1;exitDx=0;exitDy=0;entryX=0;entryY=0.5;entryDx=0;entryDy=0;labelBackgroundColor=none;fontColor=default;strokeColor=#736CA8;" parent="WIyWlLk6GJQsqaUBKTNV-1" source="WIyWlLk6GJQsqaUBKTNV-11" target="liWkwpBe3BBsj_QsNoLm-11" edge="1">
          <mxGeometry relative="1" as="geometry" />
        </mxCell>
        <mxCell id="liWkwpBe3BBsj_QsNoLm-16" style="edgeStyle=orthogonalEdgeStyle;rounded=0;orthogonalLoop=1;jettySize=auto;html=1;exitX=0.5;exitY=1;exitDx=0;exitDy=0;entryX=0;entryY=0.5;entryDx=0;entryDy=0;labelBackgroundColor=none;fontColor=default;strokeColor=#736CA8;" parent="WIyWlLk6GJQsqaUBKTNV-1" source="WIyWlLk6GJQsqaUBKTNV-11" target="liWkwpBe3BBsj_QsNoLm-12" edge="1">
          <mxGeometry relative="1" as="geometry" />
        </mxCell>
        <mxCell id="liWkwpBe3BBsj_QsNoLm-18" style="edgeStyle=orthogonalEdgeStyle;rounded=0;orthogonalLoop=1;jettySize=auto;html=1;exitX=0.5;exitY=1;exitDx=0;exitDy=0;entryX=0.5;entryY=0;entryDx=0;entryDy=0;labelBackgroundColor=none;fontColor=default;strokeColor=#736CA8;" parent="WIyWlLk6GJQsqaUBKTNV-1" source="WIyWlLk6GJQsqaUBKTNV-11" target="liWkwpBe3BBsj_QsNoLm-17" edge="1">
          <mxGeometry relative="1" as="geometry">
            <Array as="points">
              <mxPoint x="100" y="640" />
              <mxPoint x="480" y="640" />
            </Array>
          </mxGeometry>
        </mxCell>
        <mxCell id="WIyWlLk6GJQsqaUBKTNV-11" value="Galvenais skats" style="rounded=1;whiteSpace=wrap;html=1;fontSize=12;glass=0;strokeWidth=1;shadow=0;labelBackgroundColor=none;fillColor=#5D7F99;strokeColor=#D0CEE2;fontColor=#1A1A1A;" parent="WIyWlLk6GJQsqaUBKTNV-1" vertex="1">
          <mxGeometry x="40" y="590" width="120" height="40" as="geometry" />
        </mxCell>
        <mxCell id="liWkwpBe3BBsj_QsNoLm-1" style="edgeStyle=orthogonalEdgeStyle;rounded=0;orthogonalLoop=1;jettySize=auto;html=1;entryX=0.5;entryY=0;entryDx=0;entryDy=0;labelBackgroundColor=none;fontColor=default;strokeColor=#736CA8;" parent="WIyWlLk6GJQsqaUBKTNV-1" source="liWkwpBe3BBsj_QsNoLm-0" target="WIyWlLk6GJQsqaUBKTNV-3" edge="1">
          <mxGeometry relative="1" as="geometry" />
        </mxCell>
        <mxCell id="liWkwpBe3BBsj_QsNoLm-0" value="Lietotājs atver programmu" style="rounded=0;whiteSpace=wrap;html=1;labelBackgroundColor=none;fillColor=#5D7F99;strokeColor=#D0CEE2;fontColor=#1A1A1A;" parent="WIyWlLk6GJQsqaUBKTNV-1" vertex="1">
          <mxGeometry x="40" y="40" width="120" height="40" as="geometry" />
        </mxCell>
        <mxCell id="liWkwpBe3BBsj_QsNoLm-5" value="Jā" style="edgeStyle=orthogonalEdgeStyle;rounded=0;orthogonalLoop=1;jettySize=auto;html=1;exitX=0.5;exitY=0;exitDx=0;exitDy=0;labelBackgroundColor=none;fontColor=default;strokeColor=#736CA8;" parent="WIyWlLk6GJQsqaUBKTNV-1" source="liWkwpBe3BBsj_QsNoLm-3" edge="1">
          <mxGeometry relative="1" as="geometry">
            <mxPoint x="100" y="210" as="targetPoint" />
            <Array as="points">
              <mxPoint x="530" y="190" />
              <mxPoint x="100" y="190" />
            </Array>
          </mxGeometry>
        </mxCell>
        <mxCell id="liWkwpBe3BBsj_QsNoLm-6" value="Nē" style="edgeStyle=orthogonalEdgeStyle;rounded=0;orthogonalLoop=1;jettySize=auto;html=1;exitX=0.5;exitY=1;exitDx=0;exitDy=0;entryX=0.5;entryY=1;entryDx=0;entryDy=0;labelBackgroundColor=none;fontColor=default;strokeColor=#736CA8;" parent="WIyWlLk6GJQsqaUBKTNV-1" source="liWkwpBe3BBsj_QsNoLm-3" target="WIyWlLk6GJQsqaUBKTNV-7" edge="1">
          <mxGeometry relative="1" as="geometry" />
        </mxCell>
        <mxCell id="liWkwpBe3BBsj_QsNoLm-3" value="Reģistrācija&amp;nbsp;&lt;div&gt;veiksmīgi&lt;/div&gt;&lt;div&gt;pabeigta&lt;/div&gt;" style="rhombus;whiteSpace=wrap;html=1;shadow=0;fontFamily=Helvetica;fontSize=12;align=center;strokeWidth=1;spacing=6;spacingTop=-4;labelBackgroundColor=none;fillColor=#5D7F99;strokeColor=#D0CEE2;fontColor=#1A1A1A;" parent="WIyWlLk6GJQsqaUBKTNV-1" vertex="1">
          <mxGeometry x="480" y="210" width="100" height="80" as="geometry" />
        </mxCell>
        <mxCell id="liWkwpBe3BBsj_QsNoLm-28" style="edgeStyle=orthogonalEdgeStyle;rounded=0;orthogonalLoop=1;jettySize=auto;html=1;exitX=1;exitY=0.5;exitDx=0;exitDy=0;entryX=0.5;entryY=0;entryDx=0;entryDy=0;labelBackgroundColor=none;fontColor=default;strokeColor=#736CA8;" parent="WIyWlLk6GJQsqaUBKTNV-1" source="liWkwpBe3BBsj_QsNoLm-9" target="liWkwpBe3BBsj_QsNoLm-27" edge="1">
          <mxGeometry relative="1" as="geometry">
            <Array as="points">
              <mxPoint x="400" y="700" />
            </Array>
          </mxGeometry>
        </mxCell>
        <mxCell id="liWkwpBe3BBsj_QsNoLm-9" value="Izsniegumu skats" style="rounded=1;whiteSpace=wrap;html=1;labelBackgroundColor=none;fillColor=#5D7F99;strokeColor=#D0CEE2;fontColor=#1A1A1A;" parent="WIyWlLk6GJQsqaUBKTNV-1" vertex="1">
          <mxGeometry x="200" y="680" width="120" height="40" as="geometry" />
        </mxCell>
        <mxCell id="liWkwpBe3BBsj_QsNoLm-30" style="edgeStyle=orthogonalEdgeStyle;rounded=0;orthogonalLoop=1;jettySize=auto;html=1;entryX=0.5;entryY=0;entryDx=0;entryDy=0;labelBackgroundColor=none;fontColor=default;strokeColor=#736CA8;" parent="WIyWlLk6GJQsqaUBKTNV-1" source="liWkwpBe3BBsj_QsNoLm-10" target="liWkwpBe3BBsj_QsNoLm-27" edge="1">
          <mxGeometry relative="1" as="geometry">
            <Array as="points">
              <mxPoint x="400" y="780" />
            </Array>
          </mxGeometry>
        </mxCell>
        <mxCell id="liWkwpBe3BBsj_QsNoLm-10" value="Rezervāciju skats" style="rounded=1;whiteSpace=wrap;html=1;labelBackgroundColor=none;fillColor=#5D7F99;strokeColor=#D0CEE2;fontColor=#1A1A1A;" parent="WIyWlLk6GJQsqaUBKTNV-1" vertex="1">
          <mxGeometry x="200" y="760" width="120" height="40" as="geometry" />
        </mxCell>
        <mxCell id="liWkwpBe3BBsj_QsNoLm-31" style="edgeStyle=orthogonalEdgeStyle;rounded=0;orthogonalLoop=1;jettySize=auto;html=1;labelBackgroundColor=none;fontColor=default;strokeColor=#736CA8;" parent="WIyWlLk6GJQsqaUBKTNV-1" source="liWkwpBe3BBsj_QsNoLm-11" edge="1">
          <mxGeometry relative="1" as="geometry">
            <mxPoint x="400" y="1010" as="targetPoint" />
          </mxGeometry>
        </mxCell>
        <mxCell id="liWkwpBe3BBsj_QsNoLm-11" value="Inventāra skats" style="rounded=1;whiteSpace=wrap;html=1;labelBackgroundColor=none;fillColor=#5D7F99;strokeColor=#D0CEE2;fontColor=#1A1A1A;" parent="WIyWlLk6GJQsqaUBKTNV-1" vertex="1">
          <mxGeometry x="200" y="840" width="120" height="40" as="geometry" />
        </mxCell>
        <mxCell id="liWkwpBe3BBsj_QsNoLm-32" style="edgeStyle=orthogonalEdgeStyle;rounded=0;orthogonalLoop=1;jettySize=auto;html=1;entryX=0.5;entryY=0;entryDx=0;entryDy=0;labelBackgroundColor=none;fontColor=default;strokeColor=#736CA8;" parent="WIyWlLk6GJQsqaUBKTNV-1" source="liWkwpBe3BBsj_QsNoLm-12" target="liWkwpBe3BBsj_QsNoLm-27" edge="1">
          <mxGeometry relative="1" as="geometry" />
        </mxCell>
        <mxCell id="liWkwpBe3BBsj_QsNoLm-12" value="Profila skats" style="rounded=1;whiteSpace=wrap;html=1;labelBackgroundColor=none;fillColor=#5D7F99;strokeColor=#D0CEE2;fontColor=#1A1A1A;" parent="WIyWlLk6GJQsqaUBKTNV-1" vertex="1">
          <mxGeometry x="200" y="920" width="120" height="40" as="geometry" />
        </mxCell>
        <mxCell id="liWkwpBe3BBsj_QsNoLm-21" style="edgeStyle=orthogonalEdgeStyle;rounded=0;orthogonalLoop=1;jettySize=auto;html=1;exitX=0.5;exitY=1;exitDx=0;exitDy=0;entryX=0;entryY=0.5;entryDx=0;entryDy=0;labelBackgroundColor=none;fontColor=default;strokeColor=#736CA8;" parent="WIyWlLk6GJQsqaUBKTNV-1" source="liWkwpBe3BBsj_QsNoLm-17" target="liWkwpBe3BBsj_QsNoLm-19" edge="1">
          <mxGeometry relative="1" as="geometry" />
        </mxCell>
        <mxCell id="liWkwpBe3BBsj_QsNoLm-22" style="edgeStyle=orthogonalEdgeStyle;rounded=0;orthogonalLoop=1;jettySize=auto;html=1;exitX=0.5;exitY=1;exitDx=0;exitDy=0;entryX=0;entryY=0.5;entryDx=0;entryDy=0;labelBackgroundColor=none;fontColor=default;strokeColor=#736CA8;" parent="WIyWlLk6GJQsqaUBKTNV-1" source="liWkwpBe3BBsj_QsNoLm-17" target="liWkwpBe3BBsj_QsNoLm-20" edge="1">
          <mxGeometry relative="1" as="geometry" />
        </mxCell>
        <mxCell id="9YoRz9GvBlK8G4jzYBLf-0" value="Jā" style="edgeLabel;html=1;align=center;verticalAlign=middle;resizable=0;points=[];labelBackgroundColor=none;fontColor=#1A1A1A;" vertex="1" connectable="0" parent="liWkwpBe3BBsj_QsNoLm-22">
          <mxGeometry x="-0.9" y="1" relative="1" as="geometry">
            <mxPoint as="offset" />
          </mxGeometry>
        </mxCell>
        <mxCell id="liWkwpBe3BBsj_QsNoLm-17" value="Lietotājs ir administrators?" style="rhombus;whiteSpace=wrap;html=1;shadow=0;fontFamily=Helvetica;fontSize=12;align=center;strokeWidth=1;spacing=6;spacingTop=-4;labelBackgroundColor=none;fillColor=#5D7F99;strokeColor=#D0CEE2;fontColor=#1A1A1A;" parent="WIyWlLk6GJQsqaUBKTNV-1" vertex="1">
          <mxGeometry x="430" y="660" width="100" height="80" as="geometry" />
        </mxCell>
        <mxCell id="liWkwpBe3BBsj_QsNoLm-34" style="edgeStyle=orthogonalEdgeStyle;rounded=0;orthogonalLoop=1;jettySize=auto;html=1;entryX=0.5;entryY=0;entryDx=0;entryDy=0;labelBackgroundColor=none;fontColor=default;strokeColor=#736CA8;" parent="WIyWlLk6GJQsqaUBKTNV-1" source="liWkwpBe3BBsj_QsNoLm-19" target="liWkwpBe3BBsj_QsNoLm-27" edge="1">
          <mxGeometry relative="1" as="geometry">
            <Array as="points">
              <mxPoint x="740" y="780" />
              <mxPoint x="740" y="910" />
              <mxPoint x="400" y="910" />
            </Array>
          </mxGeometry>
        </mxCell>
        <mxCell id="liWkwpBe3BBsj_QsNoLm-19" value="Reģistrēto lietotāju skats" style="rounded=1;whiteSpace=wrap;html=1;labelBackgroundColor=none;fillColor=#5D7F99;strokeColor=#D0CEE2;fontColor=#1A1A1A;" parent="WIyWlLk6GJQsqaUBKTNV-1" vertex="1">
          <mxGeometry x="580" y="760" width="120" height="40" as="geometry" />
        </mxCell>
        <mxCell id="liWkwpBe3BBsj_QsNoLm-33" style="edgeStyle=orthogonalEdgeStyle;rounded=0;orthogonalLoop=1;jettySize=auto;html=1;entryX=0.5;entryY=0;entryDx=0;entryDy=0;labelBackgroundColor=none;fontColor=default;strokeColor=#736CA8;" parent="WIyWlLk6GJQsqaUBKTNV-1" source="liWkwpBe3BBsj_QsNoLm-20" target="liWkwpBe3BBsj_QsNoLm-27" edge="1">
          <mxGeometry relative="1" as="geometry">
            <Array as="points">
              <mxPoint x="740" y="860" />
              <mxPoint x="740" y="910" />
              <mxPoint x="400" y="910" />
            </Array>
          </mxGeometry>
        </mxCell>
        <mxCell id="liWkwpBe3BBsj_QsNoLm-20" value="Inventāra rediģēšanas skats" style="rounded=1;whiteSpace=wrap;html=1;labelBackgroundColor=none;fillColor=#5D7F99;strokeColor=#D0CEE2;fontColor=#1A1A1A;" parent="WIyWlLk6GJQsqaUBKTNV-1" vertex="1">
          <mxGeometry x="580" y="840" width="120" height="40" as="geometry" />
        </mxCell>
        <mxCell id="liWkwpBe3BBsj_QsNoLm-24" style="edgeStyle=orthogonalEdgeStyle;rounded=0;orthogonalLoop=1;jettySize=auto;html=1;exitX=1;exitY=0.5;exitDx=0;exitDy=0;entryX=0;entryY=0.5;entryDx=0;entryDy=0;labelBackgroundColor=none;fontColor=default;strokeColor=#736CA8;" parent="WIyWlLk6GJQsqaUBKTNV-1" source="liWkwpBe3BBsj_QsNoLm-23" target="liWkwpBe3BBsj_QsNoLm-3" edge="1">
          <mxGeometry relative="1" as="geometry" />
        </mxCell>
        <mxCell id="liWkwpBe3BBsj_QsNoLm-23" value="Lietotāja dati" style="shape=parallelogram;perimeter=parallelogramPerimeter;whiteSpace=wrap;html=1;fixedSize=1;labelBackgroundColor=none;fillColor=#5D7F99;strokeColor=#D0CEE2;fontColor=#1A1A1A;" parent="WIyWlLk6GJQsqaUBKTNV-1" vertex="1">
          <mxGeometry x="340" y="220" width="120" height="60" as="geometry" />
        </mxCell>
        <mxCell id="liWkwpBe3BBsj_QsNoLm-26" value="" style="rounded=0;html=1;jettySize=auto;orthogonalLoop=1;fontSize=11;endArrow=block;endFill=0;endSize=8;strokeWidth=1;shadow=0;labelBackgroundColor=none;edgeStyle=orthogonalEdgeStyle;fontColor=default;strokeColor=#736CA8;" parent="WIyWlLk6GJQsqaUBKTNV-1" source="WIyWlLk6GJQsqaUBKTNV-6" target="liWkwpBe3BBsj_QsNoLm-25" edge="1">
          <mxGeometry y="20" relative="1" as="geometry">
            <mxPoint as="offset" />
            <mxPoint x="100" y="290" as="sourcePoint" />
            <mxPoint x="100" y="450" as="targetPoint" />
          </mxGeometry>
        </mxCell>
        <mxCell id="9YoRz9GvBlK8G4jzYBLf-1" value="Jā" style="edgeLabel;html=1;align=center;verticalAlign=middle;resizable=0;points=[];labelBackgroundColor=none;fontColor=#1A1A1A;" vertex="1" connectable="0" parent="liWkwpBe3BBsj_QsNoLm-26">
          <mxGeometry x="-0.52" y="-2" relative="1" as="geometry">
            <mxPoint as="offset" />
          </mxGeometry>
        </mxCell>
        <mxCell id="liWkwpBe3BBsj_QsNoLm-25" value="Lietotāja dati" style="shape=parallelogram;perimeter=parallelogramPerimeter;whiteSpace=wrap;html=1;fixedSize=1;labelBackgroundColor=none;fillColor=#5D7F99;strokeColor=#D0CEE2;fontColor=#1A1A1A;" parent="WIyWlLk6GJQsqaUBKTNV-1" vertex="1">
          <mxGeometry x="40" y="340" width="120" height="60" as="geometry" />
        </mxCell>
        <mxCell id="liWkwpBe3BBsj_QsNoLm-27" value="Programma aizvērta" style="rounded=0;whiteSpace=wrap;html=1;labelBackgroundColor=none;fillColor=#5D7F99;strokeColor=#D0CEE2;fontColor=#1A1A1A;" parent="WIyWlLk6GJQsqaUBKTNV-1" vertex="1">
          <mxGeometry x="340" y="1000" width="120" height="40" as="geometry" />
        </mxCell>
      </root>
    </mxGraphModel>
  </diagram>
</mxfile>
